<?xml version="1.0" standalone="no"?>
<!DOCTYPE svg PUBLIC "-//W3C//DTD SVG 1.1//EN" "http://www.w3.org/Graphics/SVG/1.1/DTD/svg11.dtd" >
<svg xmlns="http://www.w3.org/2000/svg">
<metadata></metadata>
<defs>
<font id="kingthings_clakingThgsclarity" horiz-adv-x="1169" >
<font-face units-per-em="2048" ascent="1638" descent="-410" />
<missing-glyph horiz-adv-x="679" />
<glyph horiz-adv-x="0" />
<glyph unicode="&#xd;" horiz-adv-x="593" />
<glyph unicode=" "  horiz-adv-x="679" />
<glyph unicode="&#x09;" horiz-adv-x="679" />
<glyph unicode="&#xa0;" horiz-adv-x="679" />
<glyph unicode="!" horiz-adv-x="524" d="M134 230q-38 -85 2 -159.5t133 -75.5t138.5 73.5t8.5 160.5t-140.5 86t-141.5 -85zM156 631v780q-12 127 111.5 126t105.5 -126v-782q8 -119 -105.5 -118t-111.5 120z" />
<glyph unicode="&#x22;" horiz-adv-x="735" d="M39 1540q0 66 45 112t111 46q63 0 110 -46t58.5 -144.5t-47 -207t-162.5 -172.5q-29 -12 -50.5 19t11.5 55q109 98 80 182q-66 0 -111 45.5t-45 110.5zM379 1540q0 66 45 112t111 46q63 0 110 -46t58.5 -144.5t-47 -207t-162.5 -172.5q-29 -12 -50.5 19t11.5 55 q109 98 80 182q-66 0 -111 45.5t-45 110.5z" />
<glyph unicode="#" horiz-adv-x="1161" d="M71 715q-18 37 4.5 84t88.5 41h139l84 223h-164q-94 12 -84 94q14 82 119 72h164l55 201q18 66 68.5 65.5t71 -17t22.5 -44t-53 -205.5h172l65 205q16 61 77 64t80 -14.5t3 -82.5l-55 -172h157q70 0 70 -51q0 -117 -78 -113l-186 -2l-72 -223h166q61 -4 74.5 -40t-8 -81 t-97.5 -45h-170l-61 -223q-18 -68 -98 -68q-74 0 -78 63q59 217 59 228h-180q-18 -82 -68 -230q-20 -47 -62 -56t-77 5.5t-24 75.5l67 205h-110q-63 4 -81 41zM465 840h180l78 223h-172z" />
<glyph unicode="$" horiz-adv-x="1196" d="M79 255q42 -83 179 -175q104 -55 246 -78v-246q4 -104 90 -106q88 2 90 104v248q209 12 335 127t114.5 325t-150.5 298t-299 110v488q78 -23 141 -76q76 -82 154 -26.5t-4 165.5q-109 111 -291 127v199q2 72 -47 95.5t-95 -6.5t-38 -89v-201q-219 -25 -319.5 -168 t-81 -313t144.5 -253t256 -108v-485q-55 12 -132 56t-125 113t-129 13.5t-39 -138.5zM317.5 1030q-47.5 109 10 206t176.5 99v-422q-139 8 -186.5 117zM688 201v454q127 -16 201 -104t31 -219t-232 -131z" />
<glyph unicode="%" horiz-adv-x="1425" d="M52 1228q-34 -302 68.5 -412.5t249 -112t253 109.5t75 417t-321.5 303t-324 -305zM213 1115.5q0 236.5 159.5 236.5t167 -234.5t-159.5 -236.5t-167 234.5zM373.5 314.5q-58.5 52.5 7.5 117.5l588 793q53 74 116.5 27.5t4.5 -119.5l-592 -799q-66 -72 -124.5 -19.5z M738.5 501q-33.5 -302 68.5 -413t248.5 -112t253 110t75 417t-321.5 303t-323.5 -305zM899 388.5q0 236.5 160 236.5t167 -234.5t-160 -236.5t-167 234.5z" />
<glyph unicode="&#x26;" horiz-adv-x="1587" d="M66.5 300q-39.5 179 61.5 322.5t278 200.5q-145 123 -173 255t9 226.5t106.5 154t204.5 78.5t239.5 -27t166 -152.5t19.5 -272t-220 -286.5q125 -117 260 -226q45 98 24 205q-18 98 46.5 126t112.5 -1t52 -121q16 -188 -55 -352l315 -270q47 -43 36 -96.5t-66.5 -74 t-112.5 14.5l-270 229q-180 -240 -438.5 -260t-407 64t-188 263zM278.5 347q34.5 -95 133 -139t256 -17.5t252.5 186.5l-342 301q-156 -41 -245 -138.5t-54.5 -192.5zM415.5 1134q12.5 -95 178.5 -210q162 84 189.5 188.5t-22.5 166.5t-149.5 66.5t-154 -56t-42 -155.5z" />
<glyph unicode="'" horiz-adv-x="401" d="M37 1540q0 66 45 112t111 46q63 0 110 -46t58.5 -144.5t-47 -207t-162.5 -172.5q-29 -12 -50.5 19t11.5 55q109 98 80 182q-66 0 -111 45.5t-45 110.5z" />
<glyph unicode="(" horiz-adv-x="575" d="M16.5 876.5q-18.5 -634.5 354.5 -1228.5q49 -90 121.5 -101.5t96 50t-60.5 157.5q-330 479 -324.5 1081.5t306.5 985.5q74 72 73 145.5t-72 81.5t-149 -106q-327 -431 -345.5 -1065.5z" />
<glyph unicode=")" horiz-adv-x="567" d="M-27.5 -403.5q-23.5 61.5 60.5 157.5q330 479 324.5 1081.5t-306.5 985.5q-74 72 -72.5 145.5t72 81.5t148.5 -106q327 -431 345.5 -1065.5t-354.5 -1228.5q-49 -90 -121.5 -101.5t-96 50z" />
<glyph unicode="*" horiz-adv-x="718" d="M33.5 1435.5q17.5 -49.5 83.5 -36.5l110 22l-112 -78q-29 -31 -20 -65.5t53.5 -56t87.5 31.5l71 103l-20 -133q-4 -70 44 -80t79.5 10.5t23.5 52.5l-31 150l76 -107q43 -49 87 -24.5t53.5 58.5t-21.5 58l-129 86l133 -28q68 2 79 48t-3 74.5t-57 26.5l-150 -18l109 67 q45 47 21.5 88t-55.5 47.5t-59 -18.5l-84 -112l31 131q0 41 -31.5 58t-77.5 4t-32 -79l8 -117l-76 115q-29 29 -63.5 18.5t-60 -56.5t35.5 -85l99 -57l-142 16q-43 -2 -60.5 -33.5t0 -81z" />
<glyph unicode="+" horiz-adv-x="1161" d="M70.5 752.5q-0.5 -117.5 103.5 -113.5h297v-295q-8 -109 108.5 -110t112.5 104v301h293q109 -8 109 109.5t-113 111.5h-289v289q8 109 -108.5 108.5t-112.5 -112.5v-285h-291q-109 10 -109.5 -107.5z" />
<glyph unicode="," horiz-adv-x="497" d="M104 152q0 66 45.5 111.5t110.5 45.5q63 0 110.5 -46t58.5 -144.5t-47 -207t-163 -171.5q-29 -12 -50.5 18.5t11.5 55.5q109 98 80 182q-66 0 -111 45t-45 111z" />
<glyph unicode="-" d="M72 760.5q0 -117.5 112 -111.5h801q109 -10 109 107.5t-105 113.5h-811q-106 8 -106 -109.5z" />
<glyph unicode="." horiz-adv-x="512" d="M104 158q0 61 45.5 108t110.5 47q63 0 110.5 -47t47.5 -108q0 -68 -47.5 -114t-110.5 -46q-66 0 -111 46t-45 114z" />
<glyph unicode="/" horiz-adv-x="929" d="M6 -322l690 2274q20 92 80 113.5t104 -25.5t5 -142l-695 -2275q-25 -74 -80 -85t-91.5 31t-12.5 109z" />
<glyph unicode="0" horiz-adv-x="1282" d="M75.5 980q-65.5 -560 113 -776t460 -217t455.5 213t119.5 776t-568.5 563t-579.5 -559zM286 777q3 552 359 553t369.5 -551t-359 -553t-369.5 551z" />
<glyph unicode="1" horiz-adv-x="651" d="M84 1170.5q-49 70.5 43 148.5l238 186q84 47 135 9.5t43 -140.5v-1286q-4 -96 -112.5 -96t-111.5 94v1141l-94 -76q-92 -51 -141 19.5z" />
<glyph unicode="2" horiz-adv-x="1161" d="M113.5 83q38.5 -87 160.5 -83h736q102 -8 103 114t-97 113h-643l436 459q158 150 207 301.5t12 276.5t-127 194.5t-217 91t-284.5 -29t-268.5 -230.5q-45 -121 -5 -181t105.5 -46t94 119.5t152.5 152.5t250 -29.5t90 -225t-134 -234.5l-543 -580q-66 -96 -27.5 -183z" />
<glyph unicode="3" horiz-adv-x="1150" d="M68 276q96 -170 276 -244.5t373.5 -23.5t319.5 226.5t76 440.5t-376 341l240 289q84 92 40 171.5t-161 61.5h-608q-113 4 -110 -114.5t114 -108.5h457l14 -19l-281 -317q-96 -63 -27.5 -145t150.5 -9q59 43 182 -12t150 -179t-28.5 -259t-256 -162t-358.5 178 q-63 106 -162.5 43t-23.5 -158z" />
<glyph unicode="4" horiz-adv-x="1349" d="M75.5 478.5q-34.5 60.5 10.5 129.5l342 832q47 125 150.5 89t56.5 -167l-305 -719h438v787q8 106 109.5 104t109.5 -107v-786h230q102 12 102 -109.5t-105 -111.5h-227v-350q0 -82 -112.5 -82t-108.5 84v352h-590q-66 -6 -100.5 54.5z" />
<glyph unicode="5" horiz-adv-x="1208" d="M92 231q123 -174 306.5 -217t324.5 -15t246.5 115t149.5 217t32 267t-101 268t-300 168t-426 -59l43 330h501q139 2 144.5 116.5t-146.5 114.5h-538q-104 -12 -150 -131l-69 -617q-16 -78 72.5 -106.5t119.5 23.5q121 141 327 127.5t270.5 -147.5t10 -297t-265.5 -183.5 t-391 162.5q-61 111 -150.5 43t-9.5 -179z" />
<glyph unicode="6" horiz-adv-x="1228" d="M75 436.5q42 -198.5 167 -314.5t325.5 -131.5t356 68.5t220 254t23.5 329t-156.5 259t-310 110.5t-393.5 -128.5q45 227 193.5 338.5t318.5 117.5q111 0 113 108.5t-129 98.5q-285 -4 -473.5 -190.5t-242.5 -453.5t-12 -465.5zM344 366.5q-72 143.5 3 284t290 139 t284.5 -152t-4 -285.5t-287.5 -132t-286 146.5z" />
<glyph unicode="7" horiz-adv-x="1030" d="M43 1420q0 -120 156 -111h508q-156 -455 -214.5 -698.5t-76.5 -428.5q-23 -170 92 -186t135 133q12 215 53 393t113 426t172 420q25 72 -2 119t-100 53h-680q-156 0 -156 -120z" />
<glyph unicode="8" horiz-adv-x="1257" d="M52 409.5q-7 178.5 89.5 290t223.5 131.5q-186 90 -216 223.5t13 250t149.5 186.5t318.5 74t331.5 -68t161.5 -206t1 -251.5t-206 -197.5q154 -35 231.5 -149.5t67 -294t-161 -301.5t-418.5 -122t-423 128t-162 306.5zM289.5 399q15.5 -125 118 -184t258 -55t232.5 74.5 t82 189.5t-73 193.5t-183.5 89t-200.5 0t-172 -98.5t-61.5 -209zM356.5 1142.5q8.5 -100.5 90 -147.5t193.5 -46t197 53.5t80.5 162t-85 169t-205.5 55t-202 -75t-68.5 -171z" />
<glyph unicode="9" horiz-adv-x="1118" d="M59.5 931q26.5 -181 136 -287.5t250 -137.5t295.5 31q-33 -154 -75 -406q-25 -137 97 -141.5t132 116.5q41 295 77 441.5t87 373t-47.5 412t-277.5 221t-353 -26t-261 -238.5t-60.5 -358zM277.5 942q-27.5 182 60.5 304t239.5 116t211 -114.5t43 -260t-103.5 -234.5 t-255 -38t-195.5 227z" />
<glyph unicode=":" horiz-adv-x="542" d="M123 154q0 61 45 108t111 47q63 0 110 -47t47 -108q0 -68 -47 -114t-110 -46q-66 0 -111 46t-45 114zM123 829q0 61 45 108.5t111 47.5q63 0 110 -47t47 -109q0 -68 -47 -113.5t-110 -45.5q-66 0 -111 46t-45 113z" />
<glyph unicode=";" horiz-adv-x="528" d="M98 154q0 66 45 111.5t111 45.5q63 0 110.5 -46t58.5 -144t-47.5 -207t-162.5 -172q-29 -12 -50.5 18.5t11.5 55.5q109 98 80 182q-66 0 -111 45t-45 111zM98 829q0 61 45 108.5t111 47.5q63 0 110.5 -47t47.5 -109q0 -68 -47.5 -113.5t-110.5 -45.5q-66 0 -111 46 t-45 113z" />
<glyph unicode="&#x3c;" horiz-adv-x="735" d="M43 698q10 -18 29 -34l450 -451q70 -82 153 1t7 153l-377 376l375 375q82 70 -1 153t-161 -1l-428 -428q-10 -8 -20 -19q-6 -6 -13 -12q-53 -53 -14 -113z" />
<glyph unicode="=" horiz-adv-x="1148" d="M68 595q0 -118 112 -112h801q109 -10 109 108t-105 114h-811q-106 8 -106 -110zM68 912.5q0 -117.5 112 -111.5h801q109 -10 109 107.5t-105 113.5h-811q-106 8 -106 -109.5z" />
<glyph unicode="&#x3e;" horiz-adv-x="727" d="M57 367l377 376l-375 375q-80 70 2 153t160 -1l428 -428q10 -8 21 -19l12 -12q53 -54 14 -113q-10 -18 -28 -34l-451 -451q-70 -82 -152.5 1t-7.5 153z" />
<glyph unicode="?" horiz-adv-x="995" d="M61.5 1276q4.5 96 136.5 188t320.5 79t291.5 -115.5t120.5 -256t-60 -278.5t-309.5 -178v-187q-2 -127 -64.5 -154.5t-115.5 10.5t-47 140v248q-6 100 94 102q135 8 217 86t68.5 197t-121 157t-188 16.5t-129 -99.5t-133.5 -64.5t-80.5 109.5zM298 216q-38 -85 2 -159.5 t133 -75.5t138 73.5t8.5 160.5t-140 86t-141.5 -85z" />
<glyph unicode="@" horiz-adv-x="2009" d="M133 831.5q-33 -239.5 24.5 -446.5t218.5 -378t357.5 -212t378.5 -22.5t201.5 108.5t-34.5 124t-134 12.5t-253 -10.5t-321.5 132t-207 396.5t85 534.5t442.5 323.5t531.5 -71.5t258 -418.5t-66.5 -390t-176 -51.5t-90.5 211.5t0.5 477.5q-154 12 -328 6t-314.5 -159.5 t-121 -392t230.5 -329t395 88.5q166 -190 358.5 -129t276.5 244.5t63.5 436t-166 431t-361.5 230.5t-394 43t-361.5 -91t-321.5 -270.5t-171 -428zM800.5 637q-22.5 145 60.5 234.5t263 58.5l-4 -363q-63 -102 -180 -88.5t-139.5 158.5z" />
<glyph unicode="A" horiz-adv-x="1390" d="M86 166l459 1270q37 99 186 99h3q152 -1 169 -101l426 -1291q4 -22 4 -41q-1 -84 -83 -103q-19 -4 -35 -4q-72 0 -99 81l-117 360h-577l-135 -366q-39 -76 -102 -76q-23 0 -49 10q-66 25 -66 89q0 31 16 73zM487 641h447l-195 633h-34z" />
<glyph unicode="B" horiz-adv-x="1302" d="M147 82q-2 -86 84 -86h488h6q269 0 390 174q92 133 92 298q0 52 -9 108q-39 230 -283 309q145 110 145 265q0 24 -4 50q-26 188 -141.5 258t-275.5 76l-406 -2q-86 0 -86 -100v-1350zM371 915v404h260q192 -9 195 -189v-5q0 -176 -201 -207zM375 719h291h12 q204 0 268 -131q33 -67 33 -129q1 -63 -33 -119q-61 -103 -203 -103q-14 0 -28 1h-338z" />
<glyph unicode="C" horiz-adv-x="1368" d="M120 918q-16 -97 -16 -193q0 -136 34 -267q58 -222 231 -354q167 -126 380 -126h18q224 6 343 90t173 185q21 40 21 73q0 52 -50 90q-25 18 -52 18q-66 0 -148 -102q-99 -123 -256 -124q-28 0 -58 4q-198 26 -295 153t-102 377v18q0 237 126 392q131 161 306 163h8 q167 0 225 -79q51 -71 123 -71q10 -1 21 1q85 12 91 100v9q-1 83 -101 168q-106 89 -241 97q-25 1 -50 1q-113 -1 -239 -29q-154 -36 -303 -196t-189 -398z" />
<glyph unicode="D" horiz-adv-x="1325" d="M152 63q-2 -67 61 -67h405q27 -2 53 -2q223 0 366 138q159 154 195 348q20 109 20 232q0 96 -12 200q-28 238 -202 432t-473 196h-329q-82 0 -84 -80v-1397zM391 236v1071h244q199 -11 304 -222q94 -189 94 -376q0 -21 -1 -43q-12 -208 -116 -324q-95 -107 -244 -107 q-14 0 -29 1h-252z" />
<glyph unicode="E" horiz-adv-x="1159" d="M150 82q-2 -86 83 -86h803q84 8 84 118q0 101 -88 117h-653l-2 463h297q77 12 77 117q0 100 -79 102h-299v402h520q82 4 82 106q0 111 -90 111h-649q-86 0 -86 -100v-1350z" />
<glyph unicode="F" horiz-adv-x="1050" d="M147 78q6 -90 111 -90h5q110 2 114 82l-2 620l338 -2q78 12 78 120q0 99 -78 101h-342v406h553q84 6 84 107q0 108 -87 108h-3h-685q-86 0 -86 -100v-1352z" />
<glyph unicode="G" horiz-adv-x="1341" d="M99 920q-14 -103 -14 -195q0 -155 39 -283q64 -204 217 -320t370 -127q77 -4 150 -4q132 0 249 13q106 8 131 125v584q4 24 4 45q0 134 -140 134q-9 0 -18 -1h-346q-96 0 -96 -114.5t90 -121.5l291 -2v-430q-95 -8 -173 -8q-138 0 -225 25q-136 41 -217 160.5t-91 347.5 v32q0 207 113 368q117 165 308 165h18q204 -8 266 -59q44 -35 93 -35q20 0 40 5q71 21 82 105q1 8 1 16q0 73 -93 123q-104 56 -232 69q-39 4 -82 4q-98 0 -217 -21q-171 -29 -325.5 -178.5t-192.5 -421.5z" />
<glyph unicode="H" horiz-adv-x="1343" d="M152 66q2 -84 108 -84h6q112 2 111 88v667h624v-665v-9q0 -81 110 -81q112 0 112 82v6v1380v6q0 91 -112 91h-2q-114 -1 -114 -91v-6v-479h-620v477v10q0 90 -111 90q-112 0 -112 -92v-8v-1382z" />
<glyph unicode="I" horiz-adv-x="825" d="M102 99q0 -100 89 -99h10h430q100 0 101 104v2q0 101 -97 105h-105v1110l80 2h11q95 1 103 99v11q0 94 -122 97h-364q-117 -2 -119 -104v-4q0 -99 110 -103h76v-1108l-100 -2q-103 -2 -103 -110z" />
<glyph unicode="J" horiz-adv-x="1372" d="M9 322q50 -140 187 -238q128 -92 317 -92h23q205 6 312.5 101t129.5 208q13 73 13 161q0 49 -4 103v754h250h12q108 0 108 107v6q-3 109 -102 109q-9 0 -18 -1h-924h-11q-102 0 -102 -111q1 -114 108 -114h11h441v-735q3 -43 3 -81q0 -227 -119 -267q-65 -23 -128 -23 q-69 0 -134 27q-124 53 -166 183q-32 98 -100 98q-23 0 -50 -11q-73 -29 -73 -104q0 -35 16 -80z" />
<glyph unicode="K" horiz-adv-x="1163" d="M143 109q0 -111 112 -111t116 113v555l116 2h6q141 0 248 -176l177 -441q35 -60 87 -60q25 0 55 14q68 31 68 93q0 21 -8 45l-168 398q-115 295 -352 311l404 479q53 49 53 94q0 42 -45 80q-38 32 -74 32q-52 0 -100 -69l-389 -462q-37 -49 -74 -70v496q-8 106 -117 106 t-115 -113v-1316z" />
<glyph unicode="L" horiz-adv-x="1103" d="M152 147q2 -143 102 -147l713 -2q115 8 115 123q0 108 -111 108h-4h-605v1209q0 94 -99 97h-6q-94 0 -105 -95v-1293z" />
<glyph unicode="M" horiz-adv-x="1652" d="M143 76v1323q29 140 185 140h2q158 -1 192 -138l295 -758l332 770q37 126 181 126h2q146 -1 165 -142v-1323q-8 -88 -110.5 -88t-102.5 90v1132l-352 -848q-44 -97 -123 -97h-5q-83 3 -110 102l-344 856v-1149q0 -82 -104.5 -82t-102.5 86z" />
<glyph unicode="N" horiz-adv-x="1378" d="M141 76v1339q0 91 75 113q17 5 33 5q57 0 107 -58l680 -1000v950q4 109 107.5 109t107.5 -102v-1348q-1 -76 -63 -94q-13 -4 -25 -4q-48 0 -90 55l-715 1049v-1018q-2 -82 -108.5 -82t-108.5 86z" />
<glyph unicode="O" horiz-adv-x="1605" d="M76 760q0 326 210 554t511 228q303 0 513 -228.5t210 -553.5q0 -324 -212 -552t-511 -228q-297 0 -509 228t-212 552zM303 766q0 -231 144.5 -394t349.5 -163q207 0 351 163t144 394t-144 394t-351 163q-205 0 -349.5 -163t-144.5 -394z" />
<glyph unicode="P" horiz-adv-x="1226" d="M152 88v1339q-1 10 -1 20q0 85 97 91h391h25q306 0 422 -186q93 -150 93 -305q-1 -45 -9 -91q-36 -200 -162 -318q-123 -114 -395 -114h-19h-213v-434q-2 -99 -112 -99h-3q-112 1 -114 97zM381 758h221q21 -1 41 -1q196 0 258 124q39 79 39 159q0 60 -22 122 q-50 142 -303 141h-7h-227v-545z" />
<glyph unicode="Q" horiz-adv-x="1611" d="M72 752q0 -328 213 -558.5t514 -230.5q129 0 241 41l148 -276q61 -101 128 -101q26 0 52 15q54 30 54 88q0 45 -33 108l-152 281q41 35 78 76q213 229 213 557t-212 558t-517 230q-303 0 -515 -230.5t-212 -557.5zM299 758q0 233 146.5 397t353.5 164q209 0 354 -164 t145 -397t-147 -398q-8 -10 -18 -20l-103 186q-48 96 -114 96q-28 0 -60 -17q-59 -32 -59 -89q0 -45 37 -106l106 -193q-68 -20 -141 -20q-207 0 -353.5 163.5t-146.5 397.5z" />
<glyph unicode="R" horiz-adv-x="1267" d="M143 78q6 -86 110.5 -86t111.5 80v553h167q9 1 17 1q131 0 213 -147l268 -448q34 -44 78 -44q34 -1 74 27q54 36 54 88q0 36 -26 78l-245 408q-67 136 -172 136q-9 0 -17 -1q229 55 270 281q10 53 10 102q0 160 -104 282q-124 145 -365 145q-21 0 -44 -1h-295h-4 q-100 0 -101 -111v-1343zM352 852v451h223h12q133 -1 201 -87q43 -55 44 -126q0 -48 -19 -103q-46 -135 -206 -135h-9h-246z" />
<glyph unicode="S" horiz-adv-x="1167" d="M97 244q41 -84 179 -178q129 -87 331 -87q14 1 29 1q222 6 350 131q125 122 125 320v9q-3 204 -149.5 301t-310.5 150q-165 53 -243 153q-42 53 -41 107q1 49 33 99q63 96 182 96q12 0 26 -2q140 -12 234 -93q44 -36 83 -36t73 34q34 33 34 71q0 42 -39 91 q-131 133 -368 134q-10 0 -21 -1q-252 -6 -375 -160q-101 -126 -101 -262q0 -30 5 -61q27 -170 178.5 -269.5t274.5 -139.5t220 -102q70 -45 70 -122q0 -30 -11 -64q-39 -124 -187 -155q-49 -10 -93 -10q-89 -1 -158 41q-103 62 -157 140q-29 42 -66 42q-31 0 -68 -30 q-53 -42 -53 -93q0 -26 14 -55z" />
<glyph unicode="T" horiz-adv-x="1306" d="M53 1419.5q0 -112.5 113 -112.5h381v-1227q7 -86 119 -87h2q110 0 114 85v1233h383q107 4 107 106v7q-4 108 -103 108h-4h-1005h-4q-103 0 -103 -112.5z" />
<glyph unicode="U" horiz-adv-x="1540" d="M147 1440l3 -721v-34q0 -267 120 -439q128 -182 314 -228q90 -22 180 -22q98 0 196 26q190 48 304 225q112 171 112 462v20v721q-20 83 -124 83h-2q-106 -1 -120 -81v-731v-11q0 -253 -91 -366q-92 -114 -277 -114h-4q-188 0 -282 138q-89 129 -89 331v26v721v8 q0 76 -114 75h-8q-119 -3 -119 -77q0 -6 1 -12z" />
<glyph unicode="V" horiz-adv-x="1425" d="M106 1368l515 -1284q35 -101 124 -101h2q91 1 121 103l482 1294q6 23 6 43q0 78 -84 107q-26 9 -49 9q-66 0 -90 -83l-392 -1055l-428 1061q-29 79 -94 79q-27 0 -59 -13q-74 -30 -73 -90q0 -31 19 -70z" />
<glyph unicode="W" horiz-adv-x="1882" d="M76 1374l284 -1249q31 -142 175 -142h3q146 1 181 140l205 805l229 -819q37 -126 174 -126h2q139 1 170 144l324 1264q5 21 5 40q0 80 -90 99q-21 5 -39 5q-75 0 -95 -81l-281 -1155l-256 872q-46 98 -153 98q-4 -1 -6 -1q-112 -2 -140 -101l-225 -858l-258 1133 q-28 92 -101 92q-20 0 -42 -6q-78 -22 -77 -93q0 -27 11 -61z" />
<glyph unicode="X" horiz-adv-x="1214" d="M100 1372l357 -573l-336 -566q-45 -78 -45 -132q0 -57 52 -86q29 -16 57 -16q69 0 132 99l277 498l319 -504q66 -97 130 -97q29 1 59 21q47 33 47 85q0 50 -43 118l-367 588l394 563q15 39 15 70q0 63 -62 91q-28 13 -52 13q-57 0 -98 -67l-338 -490l-313 500 q-42 53 -90 53q-28 0 -58 -17q-53 -31 -53 -85q0 -30 16 -66z" />
<glyph unicode="Y" horiz-adv-x="1175" d="M68 1386q-18 34 -18 62q0 47 52 74q29 16 55 16q48 0 87 -53l358 -615l344 619q26 53 76 53q22 0 50 -11q64 -24 64 -78q0 -21 -10 -46l-417 -745v-588q-8 -84 -110 -84h-5q-107 2 -109 90v586z" />
<glyph unicode="Z" horiz-adv-x="1247" d="M184 1532h762h12q110 0 128 -72q6 -22 6 -44q0 -55 -35 -109l-715 -1080h756q106 0 106 -110.5t-108 -118.5l-844 2q-121 2 -160 87q-14 32 -14 63q0 53 41 106l698 1057h-635q-110 4 -110 109q0 110 112 110z" />
<glyph unicode="[" horiz-adv-x="423" d="M33 -369q-2 -100 94 -96h319q111 0 117 89t-100 95h-238l2 2163h207q125 -8 131 86t-131 98h-325q-80 -25 -76 -110v-2325z" />
<glyph unicode="\" horiz-adv-x="786" d="M-18 1898l694 -2275q25 -74 80 -85t92 31t12 109l-690 2274q-20 92 -79.5 113.5t-103.5 -25.5t-5 -142z" />
<glyph unicode="]" horiz-adv-x="520" d="M-68 1968q-6 94 131 98h326q80 -25 76 -110v-2325q2 -100 -94 -96h-320q-111 0 -117 89t101 95h237l-2 2163h-207q-125 -8 -131 86z" />
<glyph unicode="_" horiz-adv-x="1628" d="M61.5 -423.5q-16.5 -59.5 7 -93.5t72.5 -38h1336q53 0 75.5 41t8 93t-112.5 59h-1284q-86 -2 -102.5 -61.5z" />
<glyph unicode="a" horiz-adv-x="1150" d="M60 553q20 219 135.5 345t230.5 154q68 17 134 17q46 1 88 -7q106 -20 171 -114v60q-1 6 -1 11q0 62 106 62h4q111 -1 111 -62q0 -4 -1 -9v-949q-2 -77 -106 -77h-1q-102 0 -102 79v103q-142 -179 -322 -179q-17 -1 -35 1q-202 20 -318 183q-98 138 -98 317q1 32 4 65z M290 362q57 -147 245 -147h11q198 4 277 215v287q-61 90 -147 129q-47 21 -102 21q-47 0 -101 -15q-117 -32 -179 -186q-32 -79 -33 -158q1 -73 29 -146z" />
<glyph unicode="b" horiz-adv-x="1208" d="M150 63v-6q0 -78 103 -78q3 1 7 1q108 2 107 71v8v84q116 -159 311 -159h18q208 8 335 160q126 149 127 387q0 3 -1 7q-2 244 -111 384q-108 142 -319 158q-17 1 -34 1q-189 0 -322 -172v543q1 94 -115 94q-107 0 -107 -81q0 -7 1 -15v-1387zM381 412v211q49 182 172 226 q54 19 106 19q67 0 131 -32q114 -56 144 -216q10 -52 10 -102q0 -104 -40 -196q-57 -133 -233 -133q-7 1 -15 1q-188 6 -275 222z" />
<glyph unicode="c" horiz-adv-x="1015" d="M54 514q0 -210 100 -346q100 -137 292 -170q66 -11 124 -11q111 1 196 41q129 62 188 169q12 31 12 57q0 55 -54 84q-26 14 -49 14q-49 0 -89 -59q-42 -77 -160 -95q-24 -4 -47 -3q-93 0 -179 59q-108 74 -118 246q-1 16 0 31q0 150 75 238q83 97 203 100h6 q116 0 216 -111q38 -28 74 -28q38 0 72 33q31 30 32 68q0 44 -41 99q-134 142 -338 142q-19 0 -41 -2q-232 -16 -353 -177q-121 -163 -121 -379z" />
<glyph unicode="d" horiz-adv-x="1193" d="M58 538q10 244 134 390q124 148 340 158q14 1 27 0q196 0 293 -144v512v6q0 82 108 84h4q107 0 109 -88v-1386v-8q-1 -78 -109 -79h-2q-106 0 -106 77v8v65q-115 -149 -319 -149h-20q-218 8 -344 160q-116 140 -116 358q0 17 1 36zM276 389q32 -113 140 -172 q66 -36 143 -36q49 1 103 15q138 38 186 224v192q-43 191 -175 234q-62 20 -120 20q-67 0 -129 -26q-116 -50 -148 -194q-16 -72 -16 -136.5t16 -120.5z" />
<glyph unicode="e" horiz-adv-x="1196" d="M66 498q0 14 -1 28q-1 232 135 393q144 171 366 176h19q209 0 345 -109q142 -114 149 -411q-2 -102 -94 -124h-694q10 -119 103 -192t230.5 -73t229.5 105q33 49 80 49q30 0 64 -20q48 -28 48 -76q0 -40 -34 -94q-76 -92 -176 -138q-86 -40 -231 -41q-24 -1 -49 1 q-181 8 -331.5 142t-158.5 384zM297 651h563q-18 179 -141 227q-62 24 -125.5 24t-130.5 -24q-133 -48 -166 -227z" />
<glyph unicode="f" horiz-adv-x="724" d="M46 888q0 -102 79 -102h84v-714q2 -89 109 -89h2q110 1 108 87v718h133q92 0 95 104v6q0 97 -93 97h-151q-29 109 -29 181q0 103 59 130q57 28 100 28q30 0 53 -14q35 -22 74 -22q21 0 43 6q64 19 67 112v3q0 90 -191 119q-34 5 -67 5q-149 0 -257 -109q-88 -90 -88 -260 q0 -80 19 -177h-78q-71 -2 -71 -109z" />
<glyph unicode="g" horiz-adv-x="1173" d="M98 342q56 -205 206 -292q110 -64 227 -64q42 0 85 8q162 31 220 115q3 -40 3 -75q0 -194 -93 -256q-78 -51 -169 -51q-39 0 -81 9q-138 31 -193 100q-29 37 -66 37q-32 0 -70 -29q-41 -31 -41 -73q0 -41 39 -93q79 -106 296 -143q54 -9 105 -9q158 0 298 85 q187 113 187 387v1001q-2 78 -121 78t-117 -84q-107 91 -254 91q-62 0 -130 -16q-232 -54 -310 -288q-45 -135 -45 -261q0 -91 24 -177zM297 590q14 241 199 282q43 9 83 9q135 0 244 -107v-510q-153 -66 -261 -66q-92 0 -150 48q-116 92 -116 297q0 23 1 47z" />
<glyph unicode="h" horiz-adv-x="1159" d="M123 70q2 -85 110 -85h3q110 1 116 78v639q124 159 273 159q23 1 47 -3q164 -26 163 -220q0 -15 -1 -32v-534v-8q0 -80 110 -81h2q113 0 113 87v637q-17 309 -289 362q-58 11 -110 11q-194 0 -312 -154v528q0 88 -113.5 88t-111.5 -86v-1386z" />
<glyph unicode="i" horiz-adv-x="524" d="M135 1393q0 55 42 99t99 44q55 0 93.5 -40t38.5 -103t-40 -104.5t-96 -41.5q-57 0 -97 44.5t-40 101.5zM160 66v-5q0 -76 114 -76h2q110 1 110 67q0 7 -1 14v940q4 73 -108 73h-3q-116 -1 -114 -73v-940z" />
<glyph unicode="j" horiz-adv-x="671" d="M72 -314q24 -63 149 -64h3q123 0 218 96q97 96 105 268v921q3 24 3 45q0 103 -84 103h-11h-256q-106 0 -106 -108q0 -111 112 -116h114l3 -833q-31 -150 -117 -160t-121 -50q-21 -24 -21 -56q0 -21 9 -46zM270 1391q0 55 42 99t100 44q55 0 93 -40t38 -103t-40 -104.5 t-95 -41.5q-57 0 -97.5 44.5t-40.5 101.5z" />
<glyph unicode="k" horiz-adv-x="1099" d="M158 68v1382q2 98 115.5 98t113.5 -98v-788l416 374q33 35 69 35t76 -38q43 -42 44 -85q0 -34 -27 -67l-275 -234l350 -489q24 -31 24 -61q0 -45 -57 -85q-43 -30 -76 -29q-40 0 -67 42l-344 467l-127 -123v-301q-2 -86 -118.5 -86t-116.5 86z" />
<glyph unicode="l" horiz-adv-x="612" d="M139 340l2 1090q-1 10 -1 18q0 90 110 91q3 -1 5 -1q112 -2 112 -85q0 -11 -2 -23l-3 -1027q10 -160 132 -192q69 -42 69 -97q0 -28 -18 -60q-35 -62 -102 -62q-34 0 -76 16q-228 99 -228 326v6z" />
<glyph unicode="m" horiz-adv-x="1732" d="M145 63q2 -74 111 -74l1 1q110 0 114 71v746q161 80 254 80q125 0 125 -146v-680q0 -72 112 -72l2 1q114 0 115 67v738q169 93 263 93q114 0 116 -138v-684q8 -76 107.5 -76t115.5 73v713q1 17 1 32q0 207 -124 247q-71 23 -139 23q-58 0 -114 -17q-120 -37 -242 -148 q-68 168 -221 168q-18 0 -36 -2q-182 -22 -344 -149v63q0 83 -109 83h-3q-106 -1 -105 -78v-9v-926z" />
<glyph unicode="n" horiz-adv-x="1210" d="M145 66q4 -79 113 -79h3q112 1 114 76v666q121 143 319 144h1q171 0 171 -198q0 -29 -4 -63v-546q2 -76 108 -77h3q104 0 108 79v645v20q0 286 -165 329q-73 19 -140 19q-91 -1 -172 -35q-141 -60 -233 -155v98q0 88 -114 88t-112 -92v-919z" />
<glyph unicode="o" horiz-adv-x="1200" d="M84 507q4 -222 104.5 -348t216 -162t212 -36t201 37t211 163t108.5 352v10q0 219 -84 341q-86 125 -191.5 178.5t-224.5 56.5h-15q-110 0 -218 -41q-114 -44 -220 -186q-101 -137 -100 -349v-16zM294 530q0 176 95 274q96 99 216 102h7q116 0 212 -93q100 -95 102 -281 v-8q0 -180 -96 -264q-98 -86 -219 -88h-5q-119 0 -214 87q-98 90 -98 271z" />
<glyph unicode="p" horiz-adv-x="1212" d="M111 -395v1399q-1 5 -1 9q0 65 105 65h1q114 -1 112 -70v-101q116 173 323 173h16q218 -7 343 -170q119 -154 119 -372q0 -11 -1 -22q-6 -233 -134 -383.5t-342 -156.5q-9 -1 -19 -1q-200 0 -301 134v-504q0 -74 -114 -74q-107 0 -107 67v7zM334 373q41 -101 172 -153 q65 -26 126 -26q62 0 120 27q114 53 145 189q15 66 15 130q0 67 -16 130q-32 125 -162 171q-60 21 -118 21q-68 0 -134 -28q-122 -54 -148 -193v-268z" />
<glyph unicode="q" horiz-adv-x="1220" d="M66 508q4 -225 130 -370.5t340 -151.5h18q200 0 300 133v-522q8 -76 66 -76q16 0 36 6l394 225q77 47 77 102q0 25 -15 51q-29 48 -78 48q-36 0 -85 -27l-182 -102v1163q-2 70 -103 72h-5q-95 0 -101 -64v-61q-115 138 -311 138h-19q-209 -7 -338 -173 q-125 -160 -125 -376q0 -7 1 -15zM286 410q-13 56 -13 114q0 70 20 141q37 130 168 173q52 17 102 17q77 0 151 -39q122 -66 134 -216v-154q-41 -174 -168 -224q-60 -23 -117 -23q-65 0 -128 29q-118 57 -149 182z" />
<glyph unicode="r" horiz-adv-x="931" d="M139 66q4 -83 112 -83h3q111 1 113 83v546v19q0 155 96 211q81 46 153 47q19 1 37 -3q88 -16 126 -56q27 -28 59 -28q13 0 27 5q47 15 59 81q2 10 2 20q0 56 -56 112q-65 65 -213 65h-9q-154 -2 -286 -174v90q0 76 -112.5 76t-110.5 -76v-935z" />
<glyph unicode="s" horiz-adv-x="989" d="M87 332q-35 -33 -35 -75q0 -55 60 -125q106 -124 296 -154q65 -10 125 -11q117 -1 215 39q148 60 197 222q18 58 18 111q0 95 -58 173q-90 121 -325 132q-234 12 -262 104q-8 27 -9 49q1 57 51 90q51 34 128 34q29 -1 61 -5q119 -18 157.5 -58.5t76.5 -42.5h4q36 0 67 33 q25 27 25 62q-1 11 -3 23q-10 50 -70 99q-61 50 -192 70q-50 8 -98 7q-78 -1 -152 -21q-118 -34 -194 -126q-62 -76 -62 -183q0 -25 4 -51q18 -140 125 -200q107 -58 318 -80q190 -19 190 -129q-1 -12 -3 -26q-23 -128 -186 -128h-12q-176 5 -276 124q-61 73 -115 73 q-34 0 -66 -30z" />
<glyph unicode="t" horiz-adv-x="1069" d="M132 823h3h84v-338q-3 -33 -3 -64q0 -195 108 -309q120 -128 310 -127h14q200 5 356 218q34 69 34 117q0 64 -60 93q-27 13 -51 13q-69 0 -110 -109q-76 -110 -184 -110q-29 0 -59 7q-139 34 -138 242v23l2 344h359q86 -1 87 103v3q0 99 -88 99h-3h-347v410v7 q0 95 -110 97h-5q-106 0 -106 -88v-6v-420h-92h-6q-82 0 -82 -97q0 -108 87 -108z" />
<glyph unicode="u" horiz-adv-x="1206" d="M137 362q23 -311 292 -367q48 -10 92 -10q202 0 317 210v-134q0 -78 112.5 -78t110.5 80v936q-4 78 -114.5 78t-112.5 -71v-590q-141 -215 -288 -215q-14 -1 -28 1q-150 21 -150 227q0 16 1 34v538q-2 74 -114 75h-3q-109 0 -115 -72v-642z" />
<glyph unicode="v" horiz-adv-x="1058" d="M37 944q-3 12 -3 22q0 58 85 84q30 9 54 10q55 0 75 -50l262 -682l295 684q23 48 79 48q23 0 51 -8q74 -21 74 -77q0 -18 -8 -39l-372 -879q-35 -61 -122 -61t-122 65z" />
<glyph unicode="w" horiz-adv-x="1447" d="M49 954l209 -872q20 -99 136 -99h2q118 1 141 97l163 694l181 -704q27 -87 137 -87h2q112 1 125 101l239 874q2 10 2 19q0 64 -87 81q-22 4 -40 4q-63 0 -79 -54l-170 -684l-181 651q-32 70 -132 70q-3 -1 -7 -1q-106 -2 -125 -73l-162 -662l-159 705q-23 53 -81 53 q-21 0 -47 -7q-74 -20 -74 -72q0 -16 7 -34z" />
<glyph unicode="x" horiz-adv-x="1103" d="M100 186q-39 -35 -39 -72q0 -38 43 -78q45 -42 84 -43q34 0 64 32l297 356l297 -348q28 -38 65 -38t83 38q52 43 52 84q0 32 -32 63l-336 377l323 346q25 37 25 70q0 45 -46 83q-32 26 -64 26q-48 0 -93 -60l-270 -299l-248 307q-50 46 -97 46q-39 0 -76 -30 q-45 -37 -45 -80q0 -36 32 -75l289 -350z" />
<glyph unicode="y" horiz-adv-x="1228" d="M115 889q-26 48 -26 84q0 58 65 87q30 14 56 14q64 0 99 -85l328 -655l278 653q33 88 101 88q23 0 52 -11q72 -28 72 -93q0 -31 -18 -72l-587 -1294q-31 -75 -92 -75q-28 0 -61 15q-67 30 -67 85q0 34 25 77l178 399z" />
<glyph unicode="z" horiz-adv-x="1054" d="M78 87q26 -87 115 -87l698 -2q111 10 111 109q0 100 -119 110h-512l534 619q56 67 56 127q-1 17 -5 33q-18 66 -117 66q-13 0 -28 -1h-614q-99 0 -99 -110q0 -107 99 -107h458l-526 -590q-57 -60 -57 -124q0 -21 6 -43z" />
<glyph unicode="{" horiz-adv-x="620" d="M41 807q172 -156 190 -354v-469q18 -285 179 -414q119 -66 176 -21t43.5 102.5t-105.5 106.5q-84 57 -90 222l2 483q8 227 -164 338q172 117 164 344l-2 483q6 164 90 221q92 49 96.5 107.5t-44 102.5t-166.5 -21q-161 -129 -179 -414v-469q-18 -199 -190 -348z" />
<glyph unicode="|" horiz-adv-x="505" d="M184 -346v2310q-2 74 43 99.5t92 4t43 -103.5v-2308q-2 -82 -45 -105.5t-88 4t-45 99.5z" />
<glyph unicode="}" horiz-adv-x="600" d="M3 -348.5q13 57.5 106 106.5q84 57 90 222l-2 483q-8 227 163 338q-172 117 -163 344l2 483q-6 164 -90 221q-92 49 -96.5 107.5t43.5 102.5t167 -21q160 -129 178 -414v-469q18 -199 191 -348q-172 -156 -191 -354v-469q-18 -285 -178 -414q-119 -66 -176 -21t-44 102.5 z" />
<glyph unicode="&#xa3;" horiz-adv-x="1200" d="M42 97.5q3 -101.5 99 -105.5h895q119 -12 123 106.5t-127 110.5h-661q121 86 100 225h285q104 -2 107 100.5t-111 98.5h-281v104h268q123 2 125 105.5t-112 105.5h-281v164q-8 197 183.5 215.5t244.5 -117.5q63 -76 142 -32.5t49 151.5q-137 252 -469 201t-361 -393v-195 h-76q-96 -4 -95 -99t91 -108h78v-108h-74q-96 -10 -96 -97.5t92 -97.5h72q-18 -209 -115.5 -221t-94.5 -113.5z" />
<glyph unicode="&#xa9;" horiz-adv-x="907" d="M66 1184q0 168 123.5 294t289.5 126q160 0 270.5 -119t110.5 -297q0 -180 -116.5 -302t-280.5 -122q-160 0 -278.5 124t-118.5 296zM186 1184q0 -121 82 -207t195 -86q115 0 196.5 85t81.5 210t-77.5 207t-190.5 82q-115 0 -201 -87.5t-86 -203.5zM259 1178.5 q1 -78.5 52 -137t127 -71t128 22.5t67.5 80t-25.5 61.5t-55 -20.5t-57 -47t-86 16.5t-51.5 93t22.5 100.5t83 35t79.5 -33t63.5 -12.5t22.5 57.5t-69.5 62.5t-131 14.5t-123 -78t-47 -144.5z" />
<glyph unicode="&#xad;" d="M72 760.5q0 -117.5 112 -111.5h801q109 -10 109 107.5t-105 113.5h-811q-106 8 -106 -109.5z" />
<glyph unicode="&#xae;" horiz-adv-x="880" d="M43 1184q0 168 124 294t290 126q160 0 270.5 -119t110.5 -297q0 -180 -117 -302t-281 -122q-160 0 -278.5 124t-118.5 296zM164 1184q0 -121 82 -207t194 -86q115 0 197 85t82 210t-78 207t-190 82q-115 0 -201 -87.5t-86 -203.5zM289 999q2 -27 44 -26.5t46 26.5v136h20 q43 0 70 -41l74 -109q18 -23 59 -4.5t21 45.5l-70 104q-23 41 -57 35q72 18 84 84t-35 104t-131 31h-92q-33 0 -33 -28v-357zM373 1208v105h49q31 4 56.5 -13.5t12 -54.5t-68.5 -37h-49z" />
<glyph unicode="&#xbc;" horiz-adv-x="1253" d="M42 1252.5q-46 66.5 42 133.5l143 130q49 33 86 7t33 -139v-569q8 -96 -79 -97t-83 95v451l-14 -17q-82 -61 -128 5.5zM179 313.5q-58 51.5 7 118.5l588 791q53 74 116.5 27.5t2.5 -120.5l-590 -796q-66 -72 -124 -20.5zM539 356l114 371q41 100 118 64.5t34 -132.5 l-90 -292h166v342q4 98 86 95t90 -99v-340h92q68 -6 66.5 -91.5t-78.5 -95.5h-80v-98q0 -90 -91.5 -90t-86.5 92v100h-258q-133 14 -82 174z" />
<glyph unicode="&#xbd;" horiz-adv-x="1150" d="M46 1252.5q-46 66.5 42 133.5l143 130q49 33 86 7t33 -139v-569q8 -96 -79 -97t-83 95v451l-14 -17q-82 -61 -128 5.5zM134 314.5q-58 52.5 7 117.5l588 793q53 74 116.5 27.5t4.5 -119.5l-592 -799q-66 -72 -124 -19.5zM545 58.5q18 -66.5 88 -62.5h389q86 0 88 90 t-84 94l-227 -2l153 176q86 80 101.5 159t-9 148.5t-73.5 100.5t-120 44t-165 -24t-137 -139q-31 -80 -3.5 -121t74 -33.5t62.5 66.5t68.5 86t104.5 -17t19.5 -101.5t-96.5 -123.5l-196 -223q-55 -51 -37 -117.5z" />
<glyph unicode="&#xbe;" horiz-adv-x="1331" d="M47 907q49 -84 139 -120.5t191.5 -22.5t172.5 118.5t40 239.5t-174 150l127 145q23 49 -3 89t-85 32h-318q-55 0 -54 -72.5t56 -66.5h215l-125 -133q-49 -33 -9 -84.5t81 -22.5q29 20 73 -3t62.5 -77.5t-12.5 -113t-107.5 -62.5t-146.5 88q-33 53 -96.5 8t-26.5 -92z M260.5 312.5q-59.5 52.5 5.5 117.5l586 787q53 76 116.5 29.5t2.5 -120.5l-588 -794q-63 -72 -122.5 -19.5zM621 356l114 373q43 98 120 62.5t34 -132.5l-90 -290h164v340q4 100 87 96t91 -100v-338h90q70 -8 68.5 -92.5t-78.5 -96.5h-80v-98q0 -90 -91.5 -90t-88.5 92v100 h-259q-133 14 -81 174z" />
<glyph unicode="&#xd7;" horiz-adv-x="933" d="M96 537q-82 -70 1 -153t153 -7l213 213l207 -207q72 -82 154.5 1t-1.5 159l-202 202l202 205q82 72 -1 155t-158 -1l-201 -201l-207 207q-70 82 -153 -1t-7 -153l209 -211z" />
<glyph unicode="&#xf7;" d="M72 760.5q0 -117.5 112 -111.5h801q109 -10 109 107.5t-105 113.5h-811q-106 8 -106 -109.5zM426 422q0 61 45 108.5t111 47.5q63 0 110 -47.5t47 -108.5q0 -68 -47 -114t-110 -46q-66 0 -111 46t-45 114zM426 1098q0 61 45 108t111 47q63 0 110 -47t47 -108 q0 -68 -47 -114t-110 -46q-66 0 -111 46t-45 114z" />
<glyph unicode="&#x2000;" horiz-adv-x="1038" />
<glyph unicode="&#x2001;" horiz-adv-x="2077" />
<glyph unicode="&#x2002;" horiz-adv-x="1038" />
<glyph unicode="&#x2003;" horiz-adv-x="2077" />
<glyph unicode="&#x2004;" horiz-adv-x="692" />
<glyph unicode="&#x2005;" horiz-adv-x="519" />
<glyph unicode="&#x2006;" horiz-adv-x="346" />
<glyph unicode="&#x2007;" horiz-adv-x="346" />
<glyph unicode="&#x2008;" horiz-adv-x="259" />
<glyph unicode="&#x2009;" horiz-adv-x="415" />
<glyph unicode="&#x200a;" horiz-adv-x="115" />
<glyph unicode="&#x2010;" d="M72 760.5q0 -117.5 112 -111.5h801q109 -10 109 107.5t-105 113.5h-811q-106 8 -106 -109.5z" />
<glyph unicode="&#x2011;" d="M72 760.5q0 -117.5 112 -111.5h801q109 -10 109 107.5t-105 113.5h-811q-106 8 -106 -109.5z" />
<glyph unicode="&#x2012;" d="M72 760.5q0 -117.5 112 -111.5h801q109 -10 109 107.5t-105 113.5h-811q-106 8 -106 -109.5z" />
<glyph unicode="&#x2013;" horiz-adv-x="1171" d="M72 760.5q0 -117.5 112 -111.5h803q109 -10 109 107.5t-105 113.5h-813q-106 8 -106 -109.5z" />
<glyph unicode="&#x2014;" horiz-adv-x="2195" d="M72 760.5q0 -117.5 224 -111.5h1606q218 -10 218 107.5t-210 113.5h-1626q-212 8 -212 -109.5z" />
<glyph unicode="&#x2018;" horiz-adv-x="399" d="M38 1310.5q-11 98.5 47 207t163 172.5q29 12 50 -19t-11 -55q-109 -98 -80 -182q66 0 110.5 -45.5t44.5 -110.5q0 -66 -45 -112t-110 -46q-63 0 -110.5 46t-58.5 144.5z" />
<glyph unicode="&#x2019;" horiz-adv-x="399" d="M39 1540q0 66 45 112t111 46q63 0 110 -46t58.5 -144.5t-47 -207t-162.5 -172.5q-29 -12 -50.5 19t11.5 55q109 98 80 182q-66 0 -111 45.5t-45 110.5z" />
<glyph unicode="&#x201c;" horiz-adv-x="747" d="M40 1310.5q-11 98.5 47 207t163 172.5q29 12 50.5 -19t-11.5 -55q-109 -98 -80 -182q66 0 111 -45.5t45 -110.5q0 -66 -45.5 -112t-110.5 -46q-63 0 -110.5 46t-58.5 144.5zM380 1310.5q-11 98.5 47 207t163 172.5q29 12 50.5 -19t-11.5 -55q-109 -98 -80 -182 q66 0 111 -45.5t45 -110.5q0 -66 -45.5 -112t-110.5 -46q-63 0 -110.5 46t-58.5 144.5z" />
<glyph unicode="&#x201d;" horiz-adv-x="753" d="M39 1540q0 66 45 112t111 46q63 0 110 -46t58.5 -144.5t-47 -207t-162.5 -172.5q-29 -12 -50.5 19t11.5 55q109 98 80 182q-66 0 -111 45.5t-45 110.5zM379 1540q0 66 45 112t111 46q63 0 110 -46t58.5 -144.5t-47 -207t-162.5 -172.5q-29 -12 -50.5 19t11.5 55 q109 98 80 182q-66 0 -111 45.5t-45 110.5z" />
<glyph unicode="&#x2022;" horiz-adv-x="942" d="M123 788q0 147 102.5 250t249.5 103t249.5 -102.5t102.5 -250.5q0 -147 -102 -249.5t-250 -102.5q-147 0 -249.5 102.5t-102.5 249.5z" />
<glyph unicode="&#x202f;" horiz-adv-x="415" />
<glyph unicode="&#x205f;" horiz-adv-x="519" />
<glyph unicode="&#x20ac;" horiz-adv-x="1269" d="M17.5 603q-1.5 -118 166.5 -97q27 -238 183.5 -371t362.5 -146.5t316.5 49t163 136.5t-10 132.5t-171 -40t-282 -80t-257 128t-81.5 199.5h495q51 2 72.5 40t8.5 93t-107 62h-488v90h522q49 0 71 47t8.5 96t-107.5 55h-471q12 109 105 216.5t240.5 109.5t208 -53.5 t130 -39t80 100.5t-93 140.5t-203 64.5t-256 -25.5t-286.5 -184t-153 -331.5q-147 20 -157.5 -98.5t139.5 -110.5l-4 -73q-143 8 -144.5 -110z" />
<glyph unicode="&#x2122;" horiz-adv-x="1353" d="M80 1536q0 72 53 72h455q39 0 51 -37q23 35 74 35q74 0 88 -70l123 -303l139 309q16 66 85 66t77 -74v-565q-4 -49 -68.5 -49t-64.5 49l-2 377l-115 -256q-20 -43 -57 -42t-48 44l-104 258v-385q0 -45 -70.5 -45t-70.5 47l2 514q-14 -12 -39 -13h-148v-495 q-2 -53 -73.5 -53t-73.5 55v489h-158q-55 0 -55 72z" />
<glyph unicode="&#x25fc;" horiz-adv-x="1085" d="M0 0v1085h1085v-1085h-1085z" />
</font>
</defs>
</svg>
